Patient4_TMGait_0pt5_01_left_04_GRF.mot
version=1
nRows=44
nColumns=19
inDegrees=no
endheader
time	F1x	F1y	F1z	M1x	M1y	M1z	F2x	F2y	F2z	M2x	M2y	M2z	EC1x	EC1y	EC1z	EC2x	EC2y	EC2z
5.22	0	0	0	0	0	0	-42.349	795.796	-63.1268	297.9186	65.8331	628.4835	-0.0462	0.0182	-0.0073	-0.0462	0.0165	0.9715
5.2336	0	0	0	0	0	0	-42.115	819.376	-65.3315	306.6543	67.3521	645.8071	-0.0462	0.0182	-0.0073	-0.0462	0.0165	0.9715
5.2471	0	0	0	0	0	0	-40.1877	821.9087	-65.5154	307.5193	66.608	645.8084	-0.0462	0.0182	-0.0073	-0.0462	0.0165	0.9715
5.2607	0	0	0	0	0	0	-36.8688	808.9217	-63.9763	302.6005	63.9609	632.7833	-0.0462	0.0182	-0.0073	-0.0462	0.0165	0.9715
5.2743	0	0	0	0	0	0	-32.5546	786.9056	-61.1429	294.3438	59.9108	611.8381	-0.0462	0.0182	-0.0073	-0.0462	0.0165	0.9715
5.2879	0	0	0	0	0	0	-27.6735	762.2064	-57.5055	285.1362	55.0163	588.0197	-0.0462	0.0182	-0.0073	-0.0462	0.0165	0.9715
5.3014	0	0	0	0	0	0	-22.6328	740.1213	-53.5506	276.9653	49.8193	565.6009	-0.0462	0.0182	-0.0073	-0.0462	0.0165	0.9715
5.315	0	0	0	0	0	0	-17.7798	724.3053	-49.7066	271.1958	44.787	547.6071	-0.0462	0.0182	-0.0073	-0.0462	0.0165	0.9715
5.3286	0	0	0	0	0	0	-13.3791	716.5275	-46.3057	268.4796	40.2739	535.6158	-0.0462	0.0182	-0.0073	-0.0462	0.0165	0.9715
5.3421	0	0	0	0	0	0	-9.6064	716.7545	-43.5643	268.7889	36.5054	529.8096	-0.0462	0.0182	-0.0073	-0.0462	0.0165	0.9715
5.3557	0	0	0	0	0	0	-6.5542	723.4941	-41.5798	271.548	33.5811	529.2315	-0.0462	0.0182	-0.0073	-0.0462	0.0165	0.9715
5.3693	0	0	0	0	0	0	-4.2434	734.3104	-40.3426	275.8285	31.4913	532.1704	-0.0462	0.0182	-0.0073	-0.0462	0.0165	0.9715
5.3829	0	0	0	0	0	0	-2.6374	746.4056	-39.76	280.5697	30.1439	536.5986	-0.0462	0.0182	-0.0073	-0.0462	0.0165	0.9715
5.3964	0	0	0	0	0	0	-1.6524	757.1755	-39.6874	284.787	29.3931	540.5874	-0.0462	0.0182	-0.0073	-0.0462	0.0165	0.9715
5.41	0	0	0	0	0	0	-1.1654	764.6553	-39.9619	287.7379	29.0688	542.6397	-0.0462	0.0182	-0.0073	-0.0462	0.0165	0.9715
5.4236	0	0	0	0	0	0	-1.0166	767.7992	-40.4335	289.0259	28.9993	541.8992	-0.0462	0.0182	-0.0073	-0.0462	0.0165	0.9715
5.4371	0	0	0	0	0	0	-1.0139	766.5641	-40.9886	288.6285	29.0299	538.2172	-0.0462	0.0182	-0.0073	-0.0462	0.0165	0.9715
5.4507	0	0	0	0	0	0	-0.9408	761.7985	-41.5629	286.8545	29.0329	532.0797	-0.0462	0.0182	-0.0073	-0.0462	0.0165	0.9715
5.4643	0	0	0	0	0	0	-0.57352	754.9688	-42.1404	284.2403	28.913	524.4221	-0.0462	0.0182	-0.0073	-0.0462	0.0165	0.9715
5.4779	0	0	0	0	0	0	0.29179	747.7816	-42.7415	281.4082	28.6079	516.3724	-0.0462	0.0182	-0.0073	-0.0462	0.0165	0.9715
5.4914	0	0	0	0	0	0	1.8054	741.775	-43.4019	278.9158	28.0874	508.9745	-0.0462	0.0182	-0.0073	-0.0462	0.0165	0.9715
5.505	0	0	0	0	0	0	4.03	737.9596	-44.149	277.1244	27.3498	502.9463	-0.0462	0.0182	-0.0073	-0.0462	0.0165	0.9715
5.5186	16.4163	12.1064	0.23677	-4.506	6.6337	7.2541	6.916	736.5762	-44.9811	276.1128	26.4186	498.5151	-0.0462	0.0182	-0.0073	-0.0462	0.0165	0.9715
5.5321	18.4754	33.6657	-0.84973	-13.041	8.368	25.8814	10.2946	737.0159	-45.8533	275.6509	25.336	495.36	-0.0462	0.0182	-0.0073	-0.0462	0.0165	0.9715
5.5457	18.7685	61.637	-1.9133	-24.0937	9.3757	50.3012	13.8941	737.9123	-46.6745	275.238	24.1549	492.6663	-0.0462	0.0182	-0.0073	-0.0462	0.0165	0.9715
5.5593	16.9248	94.8215	-2.7608	-37.1751	9.342	79.5455	17.3802	737.3833	-47.3166	274.1945	22.9301	489.2767	-0.0462	0.0182	-0.0073	-0.0462	0.0165	0.9715
5.5729	12.9006	131.2535	-3.1835	-51.492	8.0687	111.9602	20.4125	733.3701	-47.6341	271.7877	21.7079	483.9053	-0.0462	0.0182	-0.0073	-0.0462	0.0165	0.9715
5.5864	7.0129	168.4615	-2.9992	-66.0527	5.5247	145.4225	22.7073	724.0056	-47.4887	267.3653	20.5183	475.3708	-0.0462	0.0182	-0.0073	-0.0462	0.0165	0.9715
5.6	-0.13461	203.8709	-2.0998	-79.8287	1.8591	177.6889	24.091	707.9422	-46.7737	260.4729	19.3688	462.8058	-0.0462	0.0182	-0.0073	-0.0462	0.0165	0.9715
5.6136	-7.8071	235.2842	-0.48967	-91.9473	-2.6261	206.8173	24.5329	684.5842	-45.4324	250.934	18.2422	445.8083	-0.0462	0.0182	-0.0073	-0.0462	0.0165	0.9715
5.6271	-15.3115	261.3228	1.7048	-101.8674	-7.5369	231.5603	24.1511	654.186	-43.4656	238.8808	17.0988	424.5087	-0.0462	0.0182	-0.0073	-0.0462	0.0165	0.9715
5.6407	-22.1266	281.6876	4.2652	-109.4813	-12.4674	251.596	23.188	617.8014	-40.9284	224.7317	15.8824	399.5446	-0.0462	0.0182	-0.0073	-0.0462	0.0165	0.9715
5.6543	-27.9578	297.1519	6.9394	-115.1102	-17.0748	267.5194	21.9614	577.0994	-37.9188	209.1212	14.532	371.9509	-0.0462	0.0182	-0.0073	-0.0462	0.0165	0.9715
5.6679	-32.7222	309.3087	9.5068	-119.4016	-21.1326	280.6165	20.8014	534.0871	-34.5618	192.7973	12.9952	342.9887	-0.0462	0.0182	-0.0073	-0.0462	0.0165	0.9715
5.6814	-36.489	320.1746	11.8305	-123.1703	-24.5513	292.512	19.9867	490.7959	-30.996	176.5076	11.2453	313.9489	-0.0462	0.0182	-0.0073	-0.0462	0.0165	0.9715
5.695	-39.4049	331.7753	13.882	-127.2342	-27.3696	304.8056	19.6921	448.9889	-27.3642	160.8927	9.2951	285.9655	-0.0462	0.0182	-0.0073	-0.0462	0.0165	0.9715
5.7086	-41.6275	345.8163	15.7356	-132.2832	-29.7205	318.7876	19.9577	409.9365	-23.8058	146.4068	7.2055	259.8704	-0.0462	0.0182	-0.0073	-0.0462	0.0165	0.9715
5.7221	-43.2784	363.4982	17.5372	-138.8071	-31.7828	335.2839	20.6823	374.2921	-20.4487	133.2737	5.0837	236.1093	-0.0462	0.0182	-0.0073	-0.0462	0.0165	0.9715
5.7357	-44.4216	385.4804	19.4614	-147.0812	-33.7343	354.6361	21.6434	342.0794	-17.3998	121.4842	3.0704	214.728	-0.0462	0.0182	-0.0073	-0.0462	0.0165	0.9715
5.7493	-45.0638	411.9564	21.6712	-157.1948	-35.7155	376.7835	22.5368	312.7857	-14.7342	110.8327	1.3194	195.4266	-0.0462	0.0182	-0.0073	-0.0462	0.0165	0.9715
5.7629	-45.171	442.7782	24.2898	-169.0993	-37.8118	401.3922	23.0313	285.5393	-12.4886	100.983	-0.027697	177.6678	-0.0462	0.0182	-0.0073	-0.0462	0.0165	0.9715
5.7764	-44.6938	477.571	27.3875	-182.6502	-40.0546	427.9796	22.8281	259.3353	-10.6582	91.5519	-0.8658	160.8177	-0.0462	0.0182	-0.0073	-0.0462	0.0165	0.9715
5.79	-43.596	515.797	30.9817	-197.6306	-42.4327	455.9955	21.7167	233.2679	-9.2011	82.1949	-1.1453	144.2912	-0.0462	0.0182	-0.0073	-0.0462	0.0165	0.9715
5.8036	-41.8783	556.7606	35.0439	-213.752	-44.9106	484.8499	19.6153	206.7245	-8.0474	72.677	-0.88192	127.6756	-0.0462	0.0182	-0.0073	-0.0462	0.0165	0.9715
